<svg viewBox="0 0 20 20" fill="none" xmlns="http://www.w3.org/2000/svg">
  <path fill-rule="evenodd" clip-rule="evenodd"
        d="M9.627 1.755a.833.833 0 0 1 .746 0l1.666.833a.833.833 0 1 1-.745 1.491L10 3.432l-1.294.647a.833.833 0 1 1-.745-1.49l1.666-.834ZM5.745 4.628a.833.833 0 0 1-.372 1.118l-.176.088.176.088a.833.833 0 1 1-.746 1.49l-.46-.23v.735a.833.833 0 0 1-1.667 0V5.834c0-.316.178-.605.46-.746l1.667-.833a.833.833 0 0 1 1.118.373Zm8.51 0a.833.833 0 0 1 1.118-.373l1.666.833c.283.141.461.43.461.746v2.083a.833.833 0 1 1-1.667 0v-.735l-.46.23a.833.833 0 0 1-.746-1.49l.176-.088-.176-.088a.833.833 0 0 1-.372-1.118ZM7.588 7.96a.833.833 0 0 1 1.118-.373L10 8.235l1.294-.647a.833.833 0 1 1 .745 1.491l-1.206.603v1.568a.833.833 0 1 1-1.666 0V9.682L7.96 9.079a.833.833 0 0 1-.373-1.118Zm-4.255 3.29c.46 0 .834.372.834.833v1.568l1.206.603a.833.833 0 1 1-.746 1.49l-1.666-.833a.833.833 0 0 1-.461-.745v-2.083c0-.46.373-.834.833-.834Zm13.334 0c.46 0 .833.372.833.833v2.083a.833.833 0 0 1-.46.745l-1.667.834a.833.833 0 0 1-.746-1.491l1.206-.603v-1.568c0-.46.373-.834.834-.834ZM10 14.583c.46 0 .833.373.833.833v.735l.461-.23a.833.833 0 0 1 .745 1.49l-1.666.834a.833.833 0 0 1-.746 0l-1.666-.834a.833.833 0 1 1 .745-1.49l.46.23v-.735c0-.46.374-.833.834-.833Z"
        fill="currentColor"/>
</svg>